{
 "cells": [
  {
   "attachments": {},
   "cell_type": "markdown",
   "metadata": {},
   "source": [
    "### Fromat of the generator\n",
    "1. English Bible verse + hebrew text\n",
    "2. List of videos to loop\n",
    "3. "
   ]
  },
  {
   "cell_type": "code",
   "execution_count": 1,
   "metadata": {},
   "outputs": [
    {
     "name": "stdout",
     "output_type": "stream",
     "text": [
      " > Using model: vits\n",
      " > Setting up Audio Processor...\n",
      " | > sample_rate:22050\n",
      " | > resample:False\n",
      " | > num_mels:80\n",
      " | > log_func:np.log10\n",
      " | > min_level_db:0\n",
      " | > frame_shift_ms:None\n",
      " | > frame_length_ms:None\n",
      " | > ref_level_db:None\n",
      " | > fft_size:1024\n",
      " | > power:None\n",
      " | > preemphasis:0.0\n",
      " | > griffin_lim_iters:None\n",
      " | > signal_norm:None\n",
      " | > symmetric_norm:None\n",
      " | > mel_fmin:0\n",
      " | > mel_fmax:None\n",
      " | > pitch_fmin:None\n",
      " | > pitch_fmax:None\n",
      " | > spec_gain:20.0\n",
      " | > stft_pad_mode:reflect\n",
      " | > max_norm:1.0\n",
      " | > clip_norm:True\n",
      " | > do_trim_silence:False\n",
      " | > trim_db:60\n",
      " | > do_sound_norm:False\n",
      " | > do_amp_to_db_linear:True\n",
      " | > do_amp_to_db_mel:True\n",
      " | > do_rms_norm:False\n",
      " | > db_level:None\n",
      " | > stats_path:None\n",
      " | > base:10\n",
      " | > hop_length:256\n",
      " | > win_length:1024\n",
      " > initialization of speaker-embedding layers.\n"
     ]
    }
   ],
   "source": [
    "import sys\n",
    "sys.path.append('../') # so that we can import packages from parent folder\n",
    "%matplotlib inline\n",
    "\n",
    "from src.video_composition.composer import VideoComposition\n",
    "\n",
    "from src.video_composition.combo.tts_component import TTSComponent\n",
    "from src.video_composition.video.looping_mp4 import LoopingMP4\n",
    "\n",
    "#4 seconds"
   ]
  },
  {
   "cell_type": "code",
   "execution_count": 2,
   "metadata": {},
   "outputs": [
    {
     "name": "stdout",
     "output_type": "stream",
     "text": [
      "Should you not fear me? declares the Lord. Should you not tremble in my presence? I made the sand a boundary for the sea, an everlasting barrier it cannot cross. The waves may roll, but they cannot prevail; they may roar, but they cannot cross it.\n",
      "\n",
      "הַאֹותִ֨י לֹא־תִירָ֜אוּ נְאֻם־יְהֹוָ֗ה אִ֤ם מִפָּנַי֙ לֹ֣א תָחִ֔ילוּ אֲשֶׁר־שַׂ֤מְתִּי חֹול֙ גְּב֣וּל לַיָּ֔ם חָק־עֹולָ֖ם וְלֹ֣א יַעַבְרֶ֑נְהוּ וַיִּֽתְגָּעֲשׁוּ֙ וְלֹ֣א יוּכָ֔לוּ וְהָמ֥וּ גַלָּ֖יו וְלֹ֥א יַעַבְרֻֽנְהוּ\n",
      "\n"
     ]
    }
   ],
   "source": [
    "verse = 'Should you not fear me? declares the Lord. Should you not tremble in my presence? I made the sand a boundary for the sea, an everlasting barrier it cannot cross. The waves may roll, but they cannot prevail; they may roar, but they cannot cross it.'\n",
    "hebrew = '''\n",
    "הַאֹותִ֨י לֹא־תִירָ֜אוּ נְאֻם־יְהֹוָ֗ה אִ֤ם מִפָּנַי֙ לֹ֣א תָחִ֔ילוּ אֲשֶׁר־שַׂ֤מְתִּי חֹול֙ גְּב֣וּל לַיָּ֔ם חָק־עֹולָ֖ם וְלֹ֣א יַעַבְרֶ֑נְהוּ וַיִּֽתְגָּעֲשׁוּ֙ וְלֹ֣א יוּכָ֔לוּ וְהָמ֥וּ גַלָּ֖יו וְלֹ֥א יַעַבְרֻֽנְהוּ\n",
    "'''\n",
    "location = 'Jeremiah 5:22'\n",
    "\n",
    "# a list of pairs of filenames and percentages\n",
    "transitionTimestamps = [('light.mp4', '40'), ('waves.mp4', '60')]\n",
    "\n",
    "print(verse)\n",
    "print(hebrew)"
   ]
  },
  {
   "cell_type": "code",
   "execution_count": 3,
   "metadata": {},
   "outputs": [],
   "source": [
    "# clouds = './videos/clouds.mp4'\n",
    "# cabin = './videos/cabin.mp4'\n",
    "# nature = './videos/nature.mp4'\n",
    "\n",
    "# images = [(clouds, 1/3), (cabin, 1/2), (nature, 1/6)]\n",
    "\n",
    "\n",
    "# output_file = \"output/bible.mp4\"\n",
    "\n",
    "# tts = TTSComponent(verse + \" \" + location, color=(200, 10, 0), height=1024, width=1024)\n",
    "\n",
    "# third = tts.total_duration()/3\n",
    "# half = tts.total_duration()/2\n",
    "# sixth = tts.total_duration()/6\n",
    "\n",
    "# mp4 = LoopingMP4(clouds, fps=30, start=0, duration=third, reverse_loop=True, speed_factor=1)\n",
    "# mp4a = LoopingMP4(cabin, fps=30, start=third, duration=half, reverse_loop=True, speed_factor=0.5)\n",
    "# mp4b = LoopingMP4(nature, fps=30, start=sixth*5, duration=sixth, reverse_loop=True, speed_factor=2)\n",
    "\n",
    "# video_composition = VideoComposition(width=mp4.width, height=mp4.height, fps=mp4.fps)\n",
    "# video_composition.add_component(mp4)\n",
    "# video_composition.add_component(mp4a)\n",
    "# video_composition.add_component(mp4b)\n",
    "\n",
    "# video_composition.add_component(tts)\n",
    "\n",
    "# video_composition.create_video(output_file)\n"
   ]
  },
  {
   "cell_type": "code",
   "execution_count": 4,
   "metadata": {},
   "outputs": [],
   "source": [
    "# def create_composition(images, verse, location, output_path):\n",
    "#     height = 1920\n",
    "#     width = 1080\n",
    "#     fps = 30\n",
    "#     tts_component = TTSComponent(verse + \" \" + location, color=(200, 10, 0), height=height, width=width, fps=fps)\n",
    "\n",
    "#     total_duration = tts_component.total_duration()\n",
    "    \n",
    "#     video_composition = VideoComposition(width=width, height=height, fps=fps)\n",
    "    \n",
    "#     current_start_time = 0\n",
    "    \n",
    "#     for image, fraction, speed, loop in images:\n",
    "#         duration = total_duration * fraction\n",
    "#         mp4_component = LoopingMP4(image, fps=30, start=current_start_time, duration=duration, reverse_loop=loop, speed_factor=speed)\n",
    "        \n",
    "#         video_composition.add_component(mp4_component)\n",
    "#         current_start_time += duration\n",
    "\n",
    "#     video_composition.add_component(tts_component)\n",
    "\n",
    "#     video_composition.create_video(output_path)\n",
    "\n",
    "# # Loop, restart, or stretch the video to match the duration of the tts\n",
    "# images = [('./videos/clouds.mp4', 1/3, 2, True), ('./videos/cabin.mp4', 1/6, 3, False), ('./videos/nature.mp4', 1/2, 4, True)]\n",
    "# # verse = \"Some verse\"\n",
    "# # location = \"Some location\"\n",
    "# output_file = \"output/bible.mp4\"\n",
    "\n",
    "# create_composition(images, verse, location, output_file)\n",
    "\n"
   ]
  },
  {
   "cell_type": "code",
   "execution_count": 3,
   "metadata": {},
   "outputs": [
    {
     "name": "stdout",
     "output_type": "stream",
     "text": [
      " > Text splitted to sentences.\n",
      "['Should you not fear me?']\n",
      " > Processing time: 0.5203590393066406\n",
      " > Real-time factor: 0.30067916186350696\n",
      " > Text splitted to sentences.\n",
      "['declares the Lord.']\n",
      " > Processing time: 0.41529321670532227\n",
      " > Real-time factor: 0.23369782126256525\n",
      " > Text splitted to sentences.\n",
      "['Should you not tremble in my presence?']\n",
      " > Processing time: 0.6285686492919922\n",
      " > Real-time factor: 0.23130738846609525\n",
      " > Text splitted to sentences.\n",
      "['I made the sand a boundary for the sea, an everlasting barrier it cannot cross.']\n",
      " > Processing time: 1.2259769439697266\n",
      " > Real-time factor: 0.23833396472115664\n",
      " > Text splitted to sentences.\n",
      "['The waves may roll, but they cannot prevail; they may roar, but they cannot cross it.']\n",
      " > Processing time: 1.3096058368682861\n",
      " > Real-time factor: 0.24307078032782584\n",
      " > Text splitted to sentences.\n",
      "['Jeremiah 5:22']\n",
      " > Processing time: 0.4700043201446533\n",
      " > Real-time factor: 0.1983842890350231\n",
      "Component: 0 - 573\n",
      "Duration: 19.125986394557824\n",
      "@@@@@@@@@@@@@@$$$$$$$$$$\n",
      "./videos/mountains_drone_35sec.mp4\n",
      "1\n",
      "19.125986394557824\n",
      "36.08695652173913\n",
      "36.08695652173913\n",
      "@@@@@@@@@@@@@@$$$$$$$$$$\n",
      "Running looping command for ./videos/mountains_drone_35sec.mp4: ffmpeg -y -i ./videos/mountains_drone_35sec.mp4 -vcodec libx264 -pix_fmt bgr24 /var/folders/7k/52l4j6s906q9s88m_c95kdkw0000gn/T/tmps99eqx2p.avi\n"
     ]
    },
    {
     "name": "stderr",
     "output_type": "stream",
     "text": [
      "ffmpeg version 6.0 Copyright (c) 2000-2023 the FFmpeg developers\n",
      "  built with Apple clang version 14.0.3 (clang-1403.0.22.14.1)\n",
      "  configuration: --prefix=/opt/homebrew/Cellar/ffmpeg/6.0_1 --enable-shared --enable-pthreads --enable-version3 --cc=clang --host-cflags= --host-ldflags= --enable-ffplay --enable-gnutls --enable-gpl --enable-libaom --enable-libaribb24 --enable-libbluray --enable-libdav1d --enable-libmp3lame --enable-libopus --enable-librav1e --enable-librist --enable-librubberband --enable-libsnappy --enable-libsrt --enable-libsvtav1 --enable-libtesseract --enable-libtheora --enable-libvidstab --enable-libvmaf --enable-libvorbis --enable-libvpx --enable-libwebp --enable-libx264 --enable-libx265 --enable-libxml2 --enable-libxvid --enable-lzma --enable-libfontconfig --enable-libfreetype --enable-frei0r --enable-libass --enable-libopencore-amrnb --enable-libopencore-amrwb --enable-libopenjpeg --enable-libspeex --enable-libsoxr --enable-libzmq --enable-libzimg --disable-libjack --disable-indev=jack --enable-videotoolbox --enable-audiotoolbox --enable-neon\n",
      "  libavutil      58.  2.100 / 58.  2.100\n",
      "  libavcodec     60.  3.100 / 60.  3.100\n",
      "  libavformat    60.  3.100 / 60.  3.100\n",
      "  libavdevice    60.  1.100 / 60.  1.100\n",
      "  libavfilter     9.  3.100 /  9.  3.100\n",
      "  libswscale      7.  1.100 /  7.  1.100\n",
      "  libswresample   4. 10.100 /  4. 10.100\n",
      "  libpostproc    57.  1.100 / 57.  1.100\n",
      "Input #0, mov,mp4,m4a,3gp,3g2,mj2, from './videos/mountains_drone_35sec.mp4':\n",
      "  Metadata:\n",
      "    major_brand     : isom\n",
      "    minor_version   : 512\n",
      "    compatible_brands: isomiso2avc1mp41\n",
      "    encoder         : Lavf58.29.100\n",
      "  Duration: 00:00:34.62, start: 0.000000, bitrate: 4660 kb/s\n",
      "  Stream #0:0[0x1](und): Video: h264 (High) (avc1 / 0x31637661), yuv420p(progressive), 1920x1080, 4658 kb/s, 23.98 fps, 23.98 tbr, 15360 tbn (default)\n",
      "    Metadata:\n",
      "      handler_name    : VideoHandler\n",
      "      vendor_id       : [0][0][0][0]\n",
      "Stream mapping:\n",
      "  Stream #0:0 -> #0:0 (h264 (native) -> h264 (libx264))\n",
      "Press [q] to stop, [?] for help\n",
      "Incompatible pixel format 'bgr24' for codec 'libx264', auto-selecting format 'yuv444p'\n",
      "[libx264 @ 0x11ef050d0] using cpu capabilities: ARMv8 NEON\n",
      "[libx264 @ 0x11ef050d0] profile High 4:4:4 Predictive, level 4.0, 4:4:4, 8-bit\n",
      "Output #0, avi, to '/var/folders/7k/52l4j6s906q9s88m_c95kdkw0000gn/T/tmps99eqx2p.avi':\n",
      "  Metadata:\n",
      "    major_brand     : isom\n",
      "    minor_version   : 512\n",
      "    compatible_brands: isomiso2avc1mp41\n",
      "    ISFT            : Lavf60.3.100\n",
      "  Stream #0:0(und): Video: h264 (H264 / 0x34363248), yuv444p(tv, progressive), 1920x1080, q=2-31, 23.98 fps, 23.98 tbn (default)\n",
      "    Metadata:\n",
      "      handler_name    : VideoHandler\n",
      "      vendor_id       : [0][0][0][0]\n",
      "      encoder         : Lavc60.3.100 libx264\n",
      "    Side data:\n",
      "      cpb: bitrate max/min/avg: 0/0/0 buffer size: 0 vbv_delay: N/A\n",
      "frame=  830 fps= 59 q=-1.0 Lsize=   14960kB time=00:00:34.49 bitrate=3553.0kbits/s speed=2.44x     \n",
      "video:14935kB audio:0kB subtitle:0kB other streams:0kB global headers:0kB muxing overhead: 0.170140%\n",
      "[libx264 @ 0x11ef050d0] frame I:4     Avg QP:17.69  size:215750\n",
      "[libx264 @ 0x11ef050d0] frame P:209   Avg QP:19.76  size: 51034\n",
      "[libx264 @ 0x11ef050d0] frame B:617   Avg QP:23.73  size:  6101\n",
      "[libx264 @ 0x11ef050d0] consecutive B-frames:  0.8%  0.0%  0.4% 98.8%\n",
      "[libx264 @ 0x11ef050d0] mb I  I16..4: 10.6% 65.9% 23.5%\n",
      "[libx264 @ 0x11ef050d0] mb P  I16..4:  1.4%  3.6%  0.4%  P16..4: 36.1% 20.5% 10.0%  0.0%  0.0%    skip:28.0%\n",
      "[libx264 @ 0x11ef050d0] mb B  I16..4:  0.1%  0.3%  0.0%  B16..8: 39.6%  1.5%  0.3%  direct: 0.6%  skip:57.7%  L0:45.8% L1:49.5% BI: 4.7%\n",
      "[libx264 @ 0x11ef050d0] 8x8 transform intra:67.7% inter:71.6%\n",
      "[libx264 @ 0x11ef050d0] coded y,u,v intra: 53.6% 14.5% 16.7% inter: 11.6% 1.5% 1.9%\n",
      "[libx264 @ 0x11ef050d0] i16 v,h,dc,p: 13% 48% 31%  8%\n",
      "[libx264 @ 0x11ef050d0] i8 v,h,dc,ddl,ddr,vr,hd,vl,hu: 15% 23% 44%  2%  2%  1%  4%  1%  6%\n",
      "[libx264 @ 0x11ef050d0] i4 v,h,dc,ddl,ddr,vr,hd,vl,hu:  8% 43% 17%  4%  5%  2%  8%  2% 11%\n",
      "[libx264 @ 0x11ef050d0] Weighted P-Frames: Y:0.0% UV:0.0%\n",
      "[libx264 @ 0x11ef050d0] ref P L0: 68.2% 14.0% 14.1%  3.7%\n",
      "[libx264 @ 0x11ef050d0] ref B L0: 96.3%  3.3%  0.4%\n",
      "[libx264 @ 0x11ef050d0] ref B L1: 97.6%  2.4%\n",
      "[libx264 @ 0x11ef050d0] kb/s:3534.19\n"
     ]
    },
    {
     "name": "stdout",
     "output_type": "stream",
     "text": [
      "Finished running ffmpeg command\n",
      "Video captured\n",
      "Reading frame 100\n",
      "Reading frame 200\n",
      "Reading frame 300\n",
      "Reading frame 400\n",
      "Reading frame 500\n",
      "Reading frame 600\n",
      "Reading frame 700\n"
     ]
    },
    {
     "ename": "",
     "evalue": "",
     "output_type": "error",
     "traceback": [
      "\u001b[1;31mCannot execute code, session has been disposed. Please try restarting the Kernel."
     ]
    },
    {
     "ename": "",
     "evalue": "",
     "output_type": "error",
     "traceback": [
      "\u001b[1;31mThe Kernel crashed while executing code in the the current cell or a previous cell. Please review the code in the cell(s) to identify a possible cause of the failure. Click <a href='https://aka.ms/vscodeJupyterKernelCrash'>here</a> for more info. View Jupyter <a href='command:jupyter.viewOutput'>log</a> for further details."
     ]
    }
   ],
   "source": [
    "def match_duration_with_tts(input_video, verse, location, output_path):\n",
    "    height = 1920\n",
    "    width = 1080\n",
    "    fps = 30\n",
    "\n",
    "    tts_component = TTSComponent(verse + \" \" + location, color=(200, 10, 0),)\n",
    "    tts_duration = tts_component.total_duration()\n",
    "\n",
    "    # Create a temporary LoopingMP4 component to get the original video duration\n",
    "    video_duration = LoopingMP4.get_video_duration(input_video)\n",
    "    \n",
    "\n",
    "    # Calculate speed factor\n",
    "    speed_factor = video_duration / tts_duration\n",
    "    if speed_factor > 1:\n",
    "        speed_factor = 1\n",
    "\n",
    "    print(\"@@@@@@@@@@@@@@$$$$$$$$$$\")\n",
    "    print(input_video)\n",
    "    print(speed_factor)\n",
    "    print(tts_duration)\n",
    "    print(video_duration)\n",
    "    print(video_duration / speed_factor)\n",
    "    print(\"@@@@@@@@@@@@@@$$$$$$$$$$\")\n",
    "\n",
    "    # Initialize VideoComposition\n",
    "    video_composition = VideoComposition(width=width, height=height, fps=fps)\n",
    "\n",
    "    # Create MP4 component with speed adjusted to match TTS duration\n",
    "    mp4_component = LoopingMP4(input_video, fps=30, start=0, duration=tts_duration, reverse_loop=False, speed_factor=speed_factor)\n",
    "    \n",
    "    video_composition.add_component(mp4_component)\n",
    "    video_composition.add_component(tts_component)\n",
    "\n",
    "    video_composition.create_video(output_path)\n",
    "    mp4_component.close()\n",
    "    \n",
    "# Loop, restart, or stretch the video to match the duration of the tts\n",
    "# verse = \"Some verse\"\n",
    "# location = \"Some location\"\n",
    "input_video = './videos/ocean_22s.mp4'\n",
    "input_video = './videos/mountains_drone_35sec.mp4'\n",
    "output_file = \"output/bible2.mp4\"\n",
    "\n",
    "match_duration_with_tts(input_video, verse, location, output_file)\n"
   ]
  },
  {
   "cell_type": "code",
   "execution_count": 6,
   "metadata": {},
   "outputs": [
    {
     "name": "stdout",
     "output_type": "stream",
     "text": [
      "Writing  1 Chronicles 28:20  to  output/mebible/1_Chronicles_28v20.mp4\n",
      " > Text splitted to sentences.\n",
      "['Then David said to Solomon his son, “Be strong and courageous and do it.']\n",
      " > Processing time: 1.2520220279693604\n",
      " > Real-time factor: 0.2543025581864812\n",
      " > Text splitted to sentences.\n",
      "['Do not be afraid and do not be dismayed, for the LORD God, even my God, is with you.']\n",
      " > Processing time: 1.2625038623809814\n",
      " > Real-time factor: 0.23534263970563912\n",
      " > Text splitted to sentences.\n",
      "['He will not leave you or forsake you, until all the work for the service of the house of the LORD is finished.']\n",
      " > Processing time: 1.4680900573730469\n",
      " > Real-time factor: 0.23241948424092249\n",
      " > Text splitted to sentences.\n",
      "['1 Chronicles 28:20']\n",
      " > Processing time: 0.5261290073394775\n",
      " > Real-time factor: 0.20135282928067688\n",
      "Component: 0 - 576\n",
      "Duration: 19.217414965986396\n",
      "@@@@@@@@@@@@@@$$$$$$$$$$\n",
      "./videos/mountains_fog_68s.mp4\n",
      "1\n",
      "19.217414965986396\n",
      "68.04\n",
      "68.04\n",
      "@@@@@@@@@@@@@@$$$$$$$$$$\n",
      "Running looping command for ./videos/mountains_fog_68s.mp4: ffmpeg -y -i ./videos/mountains_fog_68s.mp4 -vcodec libx264 -pix_fmt bgr24 /var/folders/7k/52l4j6s906q9s88m_c95kdkw0000gn/T/tmpkcdel9oc.avi\n"
     ]
    },
    {
     "name": "stderr",
     "output_type": "stream",
     "text": [
      "ffmpeg version 6.0 Copyright (c) 2000-2023 the FFmpeg developers\n",
      "  built with Apple clang version 14.0.3 (clang-1403.0.22.14.1)\n",
      "  configuration: --prefix=/opt/homebrew/Cellar/ffmpeg/6.0_1 --enable-shared --enable-pthreads --enable-version3 --cc=clang --host-cflags= --host-ldflags= --enable-ffplay --enable-gnutls --enable-gpl --enable-libaom --enable-libaribb24 --enable-libbluray --enable-libdav1d --enable-libmp3lame --enable-libopus --enable-librav1e --enable-librist --enable-librubberband --enable-libsnappy --enable-libsrt --enable-libsvtav1 --enable-libtesseract --enable-libtheora --enable-libvidstab --enable-libvmaf --enable-libvorbis --enable-libvpx --enable-libwebp --enable-libx264 --enable-libx265 --enable-libxml2 --enable-libxvid --enable-lzma --enable-libfontconfig --enable-libfreetype --enable-frei0r --enable-libass --enable-libopencore-amrnb --enable-libopencore-amrwb --enable-libopenjpeg --enable-libspeex --enable-libsoxr --enable-libzmq --enable-libzimg --disable-libjack --disable-indev=jack --enable-videotoolbox --enable-audiotoolbox --enable-neon\n",
      "  libavutil      58.  2.100 / 58.  2.100\n",
      "  libavcodec     60.  3.100 / 60.  3.100\n",
      "  libavformat    60.  3.100 / 60.  3.100\n",
      "  libavdevice    60.  1.100 / 60.  1.100\n",
      "  libavfilter     9.  3.100 /  9.  3.100\n",
      "  libswscale      7.  1.100 /  7.  1.100\n",
      "  libswresample   4. 10.100 /  4. 10.100\n",
      "  libpostproc    57.  1.100 / 57.  1.100\n",
      "Input #0, mov,mp4,m4a,3gp,3g2,mj2, from './videos/mountains_fog_68s.mp4':\n",
      "  Metadata:\n",
      "    major_brand     : isom\n",
      "    minor_version   : 512\n",
      "    compatible_brands: isomiso2avc1mp41\n",
      "    encoder         : Lavf58.29.100\n",
      "  Duration: 00:01:08.04, start: 0.000000, bitrate: 4496 kb/s\n",
      "  Stream #0:0[0x1](und): Video: h264 (High) (avc1 / 0x31637661), yuv420p(progressive), 1920x1080, 4494 kb/s, 25 fps, 25 tbr, 15360 tbn (default)\n",
      "    Metadata:\n",
      "      handler_name    : VideoHandler\n",
      "      vendor_id       : [0][0][0][0]\n",
      "Stream mapping:\n",
      "  Stream #0:0 -> #0:0 (h264 (native) -> h264 (libx264))\n",
      "Press [q] to stop, [?] for help\n",
      "Incompatible pixel format 'bgr24' for codec 'libx264', auto-selecting format 'yuv444p'\n",
      "[libx264 @ 0x144e0d470] using cpu capabilities: ARMv8 NEON\n",
      "[libx264 @ 0x144e0d470] profile High 4:4:4 Predictive, level 4.0, 4:4:4, 8-bit\n",
      "Output #0, avi, to '/var/folders/7k/52l4j6s906q9s88m_c95kdkw0000gn/T/tmpkcdel9oc.avi':\n",
      "  Metadata:\n",
      "    major_brand     : isom\n",
      "    minor_version   : 512\n",
      "    compatible_brands: isomiso2avc1mp41\n",
      "    ISFT            : Lavf60.3.100\n",
      "  Stream #0:0(und): Video: h264 (H264 / 0x34363248), yuv444p(tv, progressive), 1920x1080, q=2-31, 25 fps, 25 tbn (default)\n",
      "    Metadata:\n",
      "      handler_name    : VideoHandler\n",
      "      vendor_id       : [0][0][0][0]\n",
      "      encoder         : Lavc60.3.100 libx264\n",
      "    Side data:\n",
      "      cpb: bitrate max/min/avg: 0/0/0 buffer size: 0 vbv_delay: N/A\n",
      "frame= 1701 fps= 78 q=-1.0 Lsize=   18538kB time=00:01:07.92 bitrate=2236.0kbits/s speed= 3.1x     \n",
      "video:18492kB audio:0kB subtitle:0kB other streams:0kB global headers:0kB muxing overhead: 0.250222%\n",
      "[libx264 @ 0x144e0d470] frame I:19    Avg QP:15.85  size:115923\n",
      "[libx264 @ 0x144e0d470] frame P:788   Avg QP:19.11  size: 16221\n",
      "[libx264 @ 0x144e0d470] frame B:894   Avg QP:21.93  size:  4420\n",
      "[libx264 @ 0x144e0d470] consecutive B-frames: 22.5%  9.6% 38.3% 29.6%\n",
      "[libx264 @ 0x144e0d470] mb I  I16..4: 40.9% 46.9% 12.2%\n",
      "[libx264 @ 0x144e0d470] mb P  I16..4:  6.3%  5.4%  0.2%  P16..4: 19.3%  5.2%  3.3%  0.0%  0.0%    skip:60.3%\n",
      "[libx264 @ 0x144e0d470] mb B  I16..4:  1.1%  0.6%  0.0%  B16..8: 23.4%  0.5%  0.1%  direct: 0.3%  skip:73.9%  L0:47.9% L1:51.2% BI: 0.9%\n",
      "[libx264 @ 0x144e0d470] 8x8 transform intra:44.3% inter:74.5%\n",
      "[libx264 @ 0x144e0d470] coded y,u,v intra: 35.5% 7.4% 6.0% inter: 4.8% 1.7% 1.3%\n",
      "[libx264 @ 0x144e0d470] i16 v,h,dc,p: 30% 25% 30% 16%\n",
      "[libx264 @ 0x144e0d470] i8 v,h,dc,ddl,ddr,vr,hd,vl,hu: 17% 19% 56%  2%  1%  1%  2%  1%  2%\n",
      "[libx264 @ 0x144e0d470] i4 v,h,dc,ddl,ddr,vr,hd,vl,hu: 15% 28% 27%  4%  5%  3%  8%  3%  6%\n",
      "[libx264 @ 0x144e0d470] Weighted P-Frames: Y:0.1% UV:0.0%\n",
      "[libx264 @ 0x144e0d470] ref P L0: 76.2%  6.4% 12.6%  4.8%  0.0%\n",
      "[libx264 @ 0x144e0d470] ref B L0: 87.1% 11.7%  1.3%\n",
      "[libx264 @ 0x144e0d470] ref B L1: 98.0%  2.0%\n",
      "[libx264 @ 0x144e0d470] kb/s:2226.45\n"
     ]
    },
    {
     "name": "stdout",
     "output_type": "stream",
     "text": [
      "Finished running ffmpeg command\n",
      "Video captured\n",
      "Reading frame 100\n",
      "Reading frame 200\n",
      "Reading frame 300\n",
      "Reading frame 400\n",
      "Reading frame 500\n",
      "Reading frame 600\n",
      "Reading frame 700\n",
      "Reading frame 800\n",
      "Reading frame 900\n",
      "Reading frame 1000\n",
      "Reading frame 1100\n",
      "Reading frame 1200\n",
      "Reading frame 1300\n",
      "Reading frame 1400\n",
      "Reading frame 1500\n",
      "Reading frame 1600\n",
      "Reading frame 1700\n",
      "Finished reading frames\n",
      "Video released\n",
      "Speed factor: 1\n",
      "Component: 0 - 576\n",
      "Duration: 19.217414965986396\n",
      "Running composer command: ffmpeg -y -i /var/folders/7k/52l4j6s906q9s88m_c95kdkw0000gn/T/tmpcpnr9qmu.mp4 -i /var/folders/7k/52l4j6s906q9s88m_c95kdkw0000gn/T/tmpxkz3u2fi.wav -c:v copy -c:a aac -strict experimental -loglevel error output/mebible/1_Chronicles_28v20.mp4\n",
      "Writing  Jeremiah 5:22  to  output/mebible/Jeremiah_5v22.mp4\n",
      " > Text splitted to sentences.\n",
      "['Do you not fear me?']\n",
      " > Processing time: 2.7112691402435303\n",
      " > Real-time factor: 1.6555018980496745\n",
      " > Text splitted to sentences.\n",
      "['declares the LORD.']\n",
      " > Processing time: 0.5815379619598389\n",
      " > Real-time factor: 0.3149045201673489\n",
      " > Text splitted to sentences.\n",
      "['Do you not tremble before me?']\n",
      " > Processing time: 0.47089719772338867\n",
      " > Real-time factor: 0.2227789909414847\n",
      " > Text splitted to sentences.\n",
      "['I placed the sand as the boundary for the sea, a perpetual barrier that it cannot pass; though the waves toss, they cannot prevail; though they roar, they cannot pass over it.']\n",
      " > Processing time: 2.5178277492523193\n",
      " > Real-time factor: 0.26607479234248543\n",
      " > Text splitted to sentences.\n",
      "['Jeremiah 5:22']\n",
      " > Processing time: 0.5334310531616211\n",
      " > Real-time factor: 0.21167137061283015\n",
      "Component: 0 - 527\n",
      "Duration: 17.581133786848074\n",
      "@@@@@@@@@@@@@@$$$$$$$$$$\n",
      "./videos/ocean_22s.mp4\n",
      "1\n",
      "17.581133786848074\n",
      "22.695652173913043\n",
      "22.695652173913043\n",
      "@@@@@@@@@@@@@@$$$$$$$$$$\n",
      "Running looping command for ./videos/ocean_22s.mp4: ffmpeg -y -i ./videos/ocean_22s.mp4 -vcodec libx264 -pix_fmt bgr24 /var/folders/7k/52l4j6s906q9s88m_c95kdkw0000gn/T/tmposh1m_xu.avi\n"
     ]
    },
    {
     "name": "stderr",
     "output_type": "stream",
     "text": [
      "ffmpeg version 6.0 Copyright (c) 2000-2023 the FFmpeg developers\n",
      "  built with Apple clang version 14.0.3 (clang-1403.0.22.14.1)\n",
      "  configuration: --prefix=/opt/homebrew/Cellar/ffmpeg/6.0_1 --enable-shared --enable-pthreads --enable-version3 --cc=clang --host-cflags= --host-ldflags= --enable-ffplay --enable-gnutls --enable-gpl --enable-libaom --enable-libaribb24 --enable-libbluray --enable-libdav1d --enable-libmp3lame --enable-libopus --enable-librav1e --enable-librist --enable-librubberband --enable-libsnappy --enable-libsrt --enable-libsvtav1 --enable-libtesseract --enable-libtheora --enable-libvidstab --enable-libvmaf --enable-libvorbis --enable-libvpx --enable-libwebp --enable-libx264 --enable-libx265 --enable-libxml2 --enable-libxvid --enable-lzma --enable-libfontconfig --enable-libfreetype --enable-frei0r --enable-libass --enable-libopencore-amrnb --enable-libopencore-amrwb --enable-libopenjpeg --enable-libspeex --enable-libsoxr --enable-libzmq --enable-libzimg --disable-libjack --disable-indev=jack --enable-videotoolbox --enable-audiotoolbox --enable-neon\n",
      "  libavutil      58.  2.100 / 58.  2.100\n",
      "  libavcodec     60.  3.100 / 60.  3.100\n",
      "  libavformat    60.  3.100 / 60.  3.100\n",
      "  libavdevice    60.  1.100 / 60.  1.100\n",
      "  libavfilter     9.  3.100 /  9.  3.100\n",
      "  libswscale      7.  1.100 /  7.  1.100\n",
      "  libswresample   4. 10.100 /  4. 10.100\n",
      "  libpostproc    57.  1.100 / 57.  1.100\n",
      "Input #0, mov,mp4,m4a,3gp,3g2,mj2, from './videos/ocean_22s.mp4':\n",
      "  Metadata:\n",
      "    major_brand     : isom\n",
      "    minor_version   : 512\n",
      "    compatible_brands: isomiso2avc1mp41\n",
      "    encoder         : Lavf58.29.100\n",
      "  Duration: 00:00:21.77, start: 0.000000, bitrate: 4558 kb/s\n",
      "  Stream #0:0[0x1](und): Video: h264 (High) (avc1 / 0x31637661), yuv420p(progressive), 1920x1080, 4556 kb/s, 23.98 fps, 23.98 tbr, 15360 tbn (default)\n",
      "    Metadata:\n",
      "      handler_name    : VideoHandler\n",
      "      vendor_id       : [0][0][0][0]\n",
      "Stream mapping:\n",
      "  Stream #0:0 -> #0:0 (h264 (native) -> h264 (libx264))\n",
      "Press [q] to stop, [?] for help\n",
      "Incompatible pixel format 'bgr24' for codec 'libx264', auto-selecting format 'yuv444p'\n",
      "[libx264 @ 0x13f72ea10] using cpu capabilities: ARMv8 NEON\n",
      "[libx264 @ 0x13f72ea10] profile High 4:4:4 Predictive, level 4.0, 4:4:4, 8-bit\n",
      "Output #0, avi, to '/var/folders/7k/52l4j6s906q9s88m_c95kdkw0000gn/T/tmposh1m_xu.avi':\n",
      "  Metadata:\n",
      "    major_brand     : isom\n",
      "    minor_version   : 512\n",
      "    compatible_brands: isomiso2avc1mp41\n",
      "    ISFT            : Lavf60.3.100\n",
      "  Stream #0:0(und): Video: h264 (H264 / 0x34363248), yuv444p(tv, progressive), 1920x1080, q=2-31, 23.98 fps, 23.98 tbn (default)\n",
      "    Metadata:\n",
      "      handler_name    : VideoHandler\n",
      "      vendor_id       : [0][0][0][0]\n",
      "      encoder         : Lavc60.3.100 libx264\n",
      "    Side data:\n",
      "      cpb: bitrate max/min/avg: 0/0/0 buffer size: 0 vbv_delay: N/A\n",
      "frame=  522 fps= 49 q=-1.0 Lsize=   10202kB time=00:00:21.64 bitrate=3860.8kbits/s speed=2.03x     \n",
      "video:10184kB audio:0kB subtitle:0kB other streams:0kB global headers:0kB muxing overhead: 0.177095%\n",
      "[libx264 @ 0x13f72ea10] frame I:3     Avg QP:19.23  size: 84168\n",
      "[libx264 @ 0x13f72ea10] frame P:425   Avg QP:21.20  size: 22025\n",
      "[libx264 @ 0x13f72ea10] frame B:94    Avg QP:24.36  size:  8674\n",
      "[libx264 @ 0x13f72ea10] consecutive B-frames: 70.7% 12.6%  9.8%  6.9%\n",
      "[libx264 @ 0x13f72ea10] mb I  I16..4: 19.6% 70.9%  9.5%\n",
      "[libx264 @ 0x13f72ea10] mb P  I16..4:  2.1%  5.5%  0.1%  P16..4: 31.9% 14.2%  4.4%  0.0%  0.0%    skip:41.9%\n",
      "[libx264 @ 0x13f72ea10] mb B  I16..4:  0.3%  1.2%  0.0%  B16..8: 36.4%  4.0%  0.4%  direct: 0.8%  skip:56.9%  L0:50.0% L1:44.5% BI: 5.5%\n",
      "[libx264 @ 0x13f72ea10] 8x8 transform intra:72.0% inter:80.6%\n",
      "[libx264 @ 0x13f72ea10] coded y,u,v intra: 43.7% 13.6% 21.5% inter: 16.1% 2.0% 4.2%\n",
      "[libx264 @ 0x13f72ea10] i16 v,h,dc,p: 19% 39% 21% 21%\n",
      "[libx264 @ 0x13f72ea10] i8 v,h,dc,ddl,ddr,vr,hd,vl,hu: 14% 27% 29%  3%  5%  3%  8%  3%  6%\n",
      "[libx264 @ 0x13f72ea10] i4 v,h,dc,ddl,ddr,vr,hd,vl,hu:  8% 45% 13%  3%  6%  3% 12%  2%  8%\n",
      "[libx264 @ 0x13f72ea10] Weighted P-Frames: Y:0.0% UV:0.0%\n",
      "[libx264 @ 0x13f72ea10] ref P L0: 79.7% 14.2%  4.6%  1.5%\n",
      "[libx264 @ 0x13f72ea10] ref B L0: 96.4%  3.2%  0.4%\n",
      "[libx264 @ 0x13f72ea10] ref B L1: 99.7%  0.3%\n",
      "[libx264 @ 0x13f72ea10] kb/s:3831.87\n"
     ]
    },
    {
     "name": "stdout",
     "output_type": "stream",
     "text": [
      "Finished running ffmpeg command\n",
      "Video captured\n",
      "Reading frame 100\n",
      "Reading frame 200\n",
      "Reading frame 300\n",
      "Reading frame 400\n",
      "Reading frame 500\n",
      "Finished reading frames\n",
      "Video released\n",
      "Speed factor: 1\n",
      "Component: 0 - 527\n",
      "Duration: 17.581133786848074\n",
      "Running composer command: ffmpeg -y -i /var/folders/7k/52l4j6s906q9s88m_c95kdkw0000gn/T/tmp4jqh91kd.mp4 -i /var/folders/7k/52l4j6s906q9s88m_c95kdkw0000gn/T/tmp9cqoqerq.wav -c:v copy -c:a aac -strict experimental -loglevel error output/mebible/Jeremiah_5v22.mp4\n",
      "Writing  Hebrews 4:14-16  to  output/mebible/Hebrews_4v14-16.mp4\n",
      " > Text splitted to sentences.\n",
      "['Since then we have a great high priest who has passed through the heavens, Jesus, the Son of God, let us hold fast our confession.']\n",
      " > Processing time: 2.45556902885437\n",
      " > Real-time factor: 0.2970316043087799\n",
      " > Text splitted to sentences.\n",
      "['For we do not have a high priest who is unable to sympathize with our weaknesses, but one who in every respect has been tempted as we are, yet without sin.']\n",
      " > Processing time: 2.2182960510253906\n",
      " > Real-time factor: 0.24974178950407372\n",
      " > Text splitted to sentences.\n",
      "['Let us then with confidence draw near to the throne of grace, that we may receive mercy and find grace to help in time of need.']\n",
      " > Processing time: 1.8701202869415283\n",
      " > Real-time factor: 0.24183724504469303\n",
      " > Text splitted to sentences.\n",
      "['Hebrews 4:14-16']\n",
      " > Processing time: 0.5835509300231934\n",
      " > Real-time factor: 0.209374153980269\n",
      "Component: 0 - 830\n",
      "Duration: 27.669478458049888\n",
      "@@@@@@@@@@@@@@$$$$$$$$$$\n",
      "./videos/clouds_18s.mp4\n",
      "0.6505362949753488\n",
      "27.669478458049888\n",
      "18.0\n",
      "27.669478458049884\n",
      "@@@@@@@@@@@@@@$$$$$$$$$$\n",
      "Running looping command for ./videos/clouds_18s.mp4: ffmpeg -y -i ./videos/clouds_18s.mp4 -vcodec libx264 -pix_fmt bgr24 /var/folders/7k/52l4j6s906q9s88m_c95kdkw0000gn/T/tmpx6k70xkf.avi\n"
     ]
    },
    {
     "name": "stderr",
     "output_type": "stream",
     "text": [
      "ffmpeg version 6.0 Copyright (c) 2000-2023 the FFmpeg developers\n",
      "  built with Apple clang version 14.0.3 (clang-1403.0.22.14.1)\n",
      "  configuration: --prefix=/opt/homebrew/Cellar/ffmpeg/6.0_1 --enable-shared --enable-pthreads --enable-version3 --cc=clang --host-cflags= --host-ldflags= --enable-ffplay --enable-gnutls --enable-gpl --enable-libaom --enable-libaribb24 --enable-libbluray --enable-libdav1d --enable-libmp3lame --enable-libopus --enable-librav1e --enable-librist --enable-librubberband --enable-libsnappy --enable-libsrt --enable-libsvtav1 --enable-libtesseract --enable-libtheora --enable-libvidstab --enable-libvmaf --enable-libvorbis --enable-libvpx --enable-libwebp --enable-libx264 --enable-libx265 --enable-libxml2 --enable-libxvid --enable-lzma --enable-libfontconfig --enable-libfreetype --enable-frei0r --enable-libass --enable-libopencore-amrnb --enable-libopencore-amrwb --enable-libopenjpeg --enable-libspeex --enable-libsoxr --enable-libzmq --enable-libzimg --disable-libjack --disable-indev=jack --enable-videotoolbox --enable-audiotoolbox --enable-neon\n",
      "  libavutil      58.  2.100 / 58.  2.100\n",
      "  libavcodec     60.  3.100 / 60.  3.100\n",
      "  libavformat    60.  3.100 / 60.  3.100\n",
      "  libavdevice    60.  1.100 / 60.  1.100\n",
      "  libavfilter     9.  3.100 /  9.  3.100\n",
      "  libswscale      7.  1.100 /  7.  1.100\n",
      "  libswresample   4. 10.100 /  4. 10.100\n",
      "  libpostproc    57.  1.100 / 57.  1.100\n",
      "Input #0, mov,mp4,m4a,3gp,3g2,mj2, from './videos/clouds_18s.mp4':\n",
      "  Metadata:\n",
      "    major_brand     : isom\n",
      "    minor_version   : 512\n",
      "    compatible_brands: isomiso2avc1mp41\n",
      "    encoder         : Lavf58.29.100\n",
      "  Duration: 00:00:18.00, start: 0.000000, bitrate: 4434 kb/s\n",
      "  Stream #0:0[0x1](und): Video: h264 (High) (avc1 / 0x31637661), yuv420p(progressive), 1920x1080, 4431 kb/s, 25 fps, 25 tbr, 15360 tbn (default)\n",
      "    Metadata:\n",
      "      handler_name    : VideoHandler\n",
      "      vendor_id       : [0][0][0][0]\n",
      "Stream mapping:\n",
      "  Stream #0:0 -> #0:0 (h264 (native) -> h264 (libx264))\n",
      "Press [q] to stop, [?] for help\n",
      "Incompatible pixel format 'bgr24' for codec 'libx264', auto-selecting format 'yuv444p'\n",
      "[libx264 @ 0x1216372f0] using cpu capabilities: ARMv8 NEON\n",
      "[libx264 @ 0x1216372f0] profile High 4:4:4 Predictive, level 4.0, 4:4:4, 8-bit\n",
      "Output #0, avi, to '/var/folders/7k/52l4j6s906q9s88m_c95kdkw0000gn/T/tmpx6k70xkf.avi':\n",
      "  Metadata:\n",
      "    major_brand     : isom\n",
      "    minor_version   : 512\n",
      "    compatible_brands: isomiso2avc1mp41\n",
      "    ISFT            : Lavf60.3.100\n",
      "  Stream #0:0(und): Video: h264 (H264 / 0x34363248), yuv444p(tv, progressive), 1920x1080, q=2-31, 25 fps, 25 tbn (default)\n",
      "    Metadata:\n",
      "      handler_name    : VideoHandler\n",
      "      vendor_id       : [0][0][0][0]\n",
      "      encoder         : Lavc60.3.100 libx264\n",
      "    Side data:\n",
      "      cpb: bitrate max/min/avg: 0/0/0 buffer size: 0 vbv_delay: N/A\n",
      "frame=  450 fps= 53 q=-1.0 Lsize=    5585kB time=00:00:17.88 bitrate=2558.9kbits/s speed= 2.1x     \n",
      "video:5569kB audio:0kB subtitle:0kB other streams:0kB global headers:0kB muxing overhead: 0.293187%\n",
      "[libx264 @ 0x1216372f0] frame I:2     Avg QP:19.26  size: 78840\n",
      "[libx264 @ 0x1216372f0] frame P:141   Avg QP:21.07  size: 27047\n",
      "[libx264 @ 0x1216372f0] frame B:307   Avg QP:23.83  size:  5639\n",
      "[libx264 @ 0x1216372f0] consecutive B-frames:  5.3%  1.8% 28.0% 64.9%\n",
      "[libx264 @ 0x1216372f0] mb I  I16..4: 22.5% 70.6%  7.0%\n",
      "[libx264 @ 0x1216372f0] mb P  I16..4:  5.5%  6.1%  0.1%  P16..4: 46.6% 13.4%  4.0%  0.0%  0.0%    skip:24.3%\n",
      "[libx264 @ 0x1216372f0] mb B  I16..4:  0.6%  0.4%  0.0%  B16..8: 39.0%  0.5%  0.0%  direct: 0.0%  skip:59.5%  L0:49.8% L1:49.8% BI: 0.3%\n",
      "[libx264 @ 0x1216372f0] 8x8 transform intra:52.4% inter:89.7%\n",
      "[libx264 @ 0x1216372f0] coded y,u,v intra: 27.7% 13.2% 12.6% inter: 8.6% 4.0% 3.8%\n",
      "[libx264 @ 0x1216372f0] i16 v,h,dc,p: 22% 28% 32% 18%\n",
      "[libx264 @ 0x1216372f0] i8 v,h,dc,ddl,ddr,vr,hd,vl,hu: 15% 19% 46%  2%  5%  4%  5%  2%  3%\n",
      "[libx264 @ 0x1216372f0] i4 v,h,dc,ddl,ddr,vr,hd,vl,hu: 17% 24% 21%  4% 10%  7%  9%  4%  4%\n",
      "[libx264 @ 0x1216372f0] Weighted P-Frames: Y:0.0% UV:0.0%\n",
      "[libx264 @ 0x1216372f0] ref P L0: 70.0%  9.3% 15.3%  5.4%\n",
      "[libx264 @ 0x1216372f0] ref B L0: 93.6%  5.5%  0.9%\n",
      "[libx264 @ 0x1216372f0] ref B L1: 98.6%  1.4%\n",
      "[libx264 @ 0x1216372f0] kb/s:2534.45\n"
     ]
    },
    {
     "name": "stdout",
     "output_type": "stream",
     "text": [
      "Finished running ffmpeg command\n",
      "Video captured\n",
      "Reading frame 100\n",
      "Reading frame 200\n",
      "Reading frame 300\n",
      "Reading frame 400\n",
      "Finished reading frames\n",
      "Video released\n",
      "Speed factor: 0.6505362949753488\n",
      "Component: 0 - 830\n",
      "Duration: 27.669478458049888\n",
      "Running composer command: ffmpeg -y -i /var/folders/7k/52l4j6s906q9s88m_c95kdkw0000gn/T/tmpvwjy6utd.mp4 -i /var/folders/7k/52l4j6s906q9s88m_c95kdkw0000gn/T/tmpth3vyni1.wav -c:v copy -c:a aac -strict experimental -loglevel error output/mebible/Hebrews_4v14-16.mp4\n"
     ]
    },
    {
     "ename": "UnicodeDecodeError",
     "evalue": "'utf-8' codec can't decode byte 0xa1 in position 0: invalid start byte",
     "output_type": "error",
     "traceback": [
      "\u001b[0;31m---------------------------------------------------------------------------\u001b[0m",
      "\u001b[0;31mUnicodeDecodeError\u001b[0m                        Traceback (most recent call last)",
      "Cell \u001b[0;32mIn[6], line 20\u001b[0m\n\u001b[1;32m     15\u001b[0m             match_duration_with_tts(\u001b[39m\"\u001b[39m\u001b[39m./videos/\u001b[39m\u001b[39m\"\u001b[39m \u001b[39m+\u001b[39m video_idea, verse, location, output_file)\n\u001b[1;32m     17\u001b[0m             \u001b[39m# Additional steps if you want to include translation and Hebrew in your videos\u001b[39;00m\n\u001b[1;32m     18\u001b[0m             \u001b[39m# ...\u001b[39;00m\n\u001b[0;32m---> 20\u001b[0m generate_videos_from_csv(\u001b[39m'\u001b[39;49m\u001b[39m./text/bibleverses.csv\u001b[39;49m\u001b[39m'\u001b[39;49m)\n",
      "Cell \u001b[0;32mIn[6], line 8\u001b[0m, in \u001b[0;36mgenerate_videos_from_csv\u001b[0;34m(csv_path)\u001b[0m\n\u001b[1;32m      5\u001b[0m csvreader \u001b[39m=\u001b[39m csv\u001b[39m.\u001b[39mreader(csvfile)\n\u001b[1;32m      6\u001b[0m header \u001b[39m=\u001b[39m \u001b[39mnext\u001b[39m(csvreader)\n\u001b[0;32m----> 8\u001b[0m \u001b[39mfor\u001b[39;00m row \u001b[39min\u001b[39;00m csvreader:\n\u001b[1;32m      9\u001b[0m     location, verse, video_idea, translation, hebrew \u001b[39m=\u001b[39m row\n\u001b[1;32m     10\u001b[0m     \u001b[39m# tts = TTSComponent(f\"{verse} {location}\", color=(200, 10, 0), height=1024, width=1024)\u001b[39;00m\n",
      "File \u001b[0;32m<frozen codecs>:322\u001b[0m, in \u001b[0;36mdecode\u001b[0;34m(self, input, final)\u001b[0m\n",
      "\u001b[0;31mUnicodeDecodeError\u001b[0m: 'utf-8' codec can't decode byte 0xa1 in position 0: invalid start byte"
     ]
    }
   ],
   "source": [
    "import csv\n",
    "\n",
    "def generate_videos_from_csv(csv_path):\n",
    "    with open(csv_path, 'r') as csvfile:\n",
    "        csvreader = csv.reader(csvfile)\n",
    "        header = next(csvreader)\n",
    "\n",
    "        for row in csvreader:\n",
    "            location, verse, video_idea, translation, hebrew = row\n",
    "            # tts = TTSComponent(f\"{verse} {location}\", color=(200, 10, 0), height=1024, width=1024)\n",
    "            output_file = f\"output/mebible/{location.replace(' ', '_').replace(':','v')}.mp4\"\n",
    "            print(\"Writing \", location, \" to \", output_file)\n",
    "\n",
    "            # If you want to match the video duration to TTS duration\n",
    "            match_duration_with_tts(\"./videos/\" + video_idea, verse, location, output_file)\n",
    "\n",
    "            # Additional steps if you want to include translation and Hebrew in your videos\n",
    "            # ...\n",
    "\n",
    "generate_videos_from_csv('./text/bibleverses.csv')\n",
    "\n"
   ]
  }
 ],
 "metadata": {
  "kernelspec": {
   "display_name": "tiktok--IX8dTYm",
   "language": "python",
   "name": "python3"
  },
  "language_info": {
   "codemirror_mode": {
    "name": "ipython",
    "version": 3
   },
   "file_extension": ".py",
   "mimetype": "text/x-python",
   "name": "python",
   "nbconvert_exporter": "python",
   "pygments_lexer": "ipython3",
   "version": "3.11.5"
  },
  "orig_nbformat": 4
 },
 "nbformat": 4,
 "nbformat_minor": 2
}
